<svg width="367px" height="160px" viewBox="0 0 367 160" version="1.1" xmlns="http://www.w3.org/2000/svg" xmlns:xlink="http://www.w3.org/1999/xlink"><g stroke="none" stroke-width="1" fill="none" fill-rule="evenodd"><g transform="translate(32, 20)" fill="#000000" fill-rule="nonzero"><g><path d="M84.6153846,43.1904762 L80.7692308,43.1904762 L80.7692308,31.047619 C80.7692308,28.8133333 79.05,27 76.9230769,27 L3.84615385,27 C1.72307692,27 0,28.8133333 0,31.047619 C0,33.2819048 1.72307692,35.0952381 3.84615385,35.0952381 L73.0769231,35.0952381 L73.0769231,83.6666667 C73.0769231,94.8259524 64.45,103.904762 53.8461538,103.904762 L26.9230769,103.904762 C16.3192308,103.904762 7.69230769,94.8259524 7.69230769,83.6666667 L7.69230769,47.2380952 C7.69230769,45.0038095 5.96923077,43.1904762 3.84615385,43.1904762 C1.72307692,43.1904762 0,45.0038095 0,47.2380952 L0,83.6666667 C0,99.2864286 12.0769231,112 26.9230769,112 L53.8461538,112 C68.6884615,112 80.7692308,99.2864286 80.7692308,83.6666667 L80.7692308,79.6190476 L84.6153846,79.6190476 C93.1,79.6190476 100,72.357619 100,63.4285714 L100,59.3809524 C100,50.4519048 93.1,43.1904762 84.6153846,43.1904762 Z M92.3076923,63.4285714 C92.3076923,67.8930952 88.8576923,71.5238095 84.6153846,71.5238095 L80.7692308,71.5238095 L80.7692308,51.2857143 L84.6153846,51.2857143 C88.8576923,51.2857143 92.3076923,54.9164286 92.3076923,59.3809524 L92.3076923,63.4285714 Z"/><path d="M23,24 C25.208,24 27,22.208 27,20 L27,12 C27,9.792 25.208,8 23,8 C20.792,8 19,9.792 19,12 L19,20 C19,22.208 20.792,24 23,24 Z"/><path d="M39,24 C41.208,24 43,22.208 43,20 L43,4 C43,1.792 41.208,0 39,0 C36.792,0 35,1.792 35,4 L35,20 C35,22.208 36.792,24 39,24 Z"/><path d="M54,24 C56.212,24 58,22.208 58,20 L58,12 C58,9.792 56.212,8 54,8 C51.792,8 50,9.792 50,12 L50,20 C50,22.208 51.792,24 54,24 Z"/></g><path d="M136.33,51 L136.33,27.06 L144.814,27.06 L144.814,21.264 L121.294,21.264 L121.294,27.06 L129.778,27.06 L129.778,51 L136.33,51 Z M158.044,51.504 C159.696,51.504 161.292,51.154 162.832,50.454 C164.372,49.754 165.646,48.76 166.654,47.472 L166.654,47.472 L162.244,44.238 C161.712,44.966 161.089,45.561 160.375,46.023 C159.661,46.485 158.786,46.716 157.75,46.716 C156.518,46.716 155.482,46.359 154.642,45.645 C153.802,44.931 153.256,43.972 153.004,42.768 L153.004,42.768 L167.62,42.768 L167.62,40.794 C167.62,39.17 167.396,37.7 166.948,36.384 C166.5,35.068 165.863,33.941 165.037,33.003 C164.211,32.065 163.203,31.344 162.013,30.84 C160.823,30.336 159.5,30.084 158.044,30.084 C156.476,30.084 154.999,30.336 153.613,30.84 C152.227,31.344 151.023,32.065 150.001,33.003 C148.979,33.941 148.174,35.068 147.586,36.384 C146.998,37.7 146.704,39.17 146.704,40.794 C146.704,42.418 146.998,43.888 147.586,45.204 C148.174,46.52 148.979,47.647 150.001,48.585 C151.023,49.523 152.227,50.244 153.613,50.748 C154.999,51.252 156.476,51.504 158.044,51.504 Z M161.32,38.484 L153.004,38.484 C153.032,37.98 153.151,37.497 153.361,37.035 C153.571,36.573 153.865,36.167 154.243,35.817 C154.621,35.467 155.076,35.18 155.608,34.956 C156.14,34.732 156.756,34.62 157.456,34.62 C158.604,34.62 159.542,34.998 160.27,35.754 C160.998,36.51 161.348,37.42 161.32,38.484 L161.32,38.484 Z M177.7,51.504 C178.988,51.504 180.213,51.266 181.375,50.79 C182.537,50.314 183.468,49.53 184.168,48.438 L184.168,48.438 L184.252,48.438 L184.252,51 L190.048,51 L190.048,40.626 C190.048,38.918 189.908,37.413 189.628,36.111 C189.348,34.809 188.851,33.71 188.137,32.814 C187.423,31.918 186.471,31.239 185.281,30.777 C184.091,30.315 182.572,30.084 180.724,30.084 C179.044,30.084 177.42,30.357 175.852,30.903 C174.284,31.449 172.912,32.268 171.736,33.36 L171.736,33.36 L175.096,36.804 C175.768,36.048 176.531,35.453 177.385,35.019 C178.239,34.585 179.184,34.368 180.22,34.368 C181.312,34.368 182.257,34.697 183.055,35.355 C183.853,36.013 184.252,36.902 184.252,38.022 C183.384,38.022 182.439,38.036 181.417,38.064 C180.395,38.092 179.373,38.176 178.351,38.316 C177.329,38.456 176.342,38.673 175.39,38.967 C174.438,39.261 173.591,39.674 172.849,40.206 C172.107,40.738 171.519,41.41 171.085,42.222 C170.651,43.034 170.434,44.028 170.434,45.204 C170.434,46.24 170.63,47.15 171.022,47.934 C171.414,48.718 171.946,49.376 172.618,49.908 C173.29,50.44 174.067,50.839 174.949,51.105 C175.831,51.371 176.748,51.504 177.7,51.504 Z M179.464,47.22 C178.764,47.22 178.092,47.038 177.448,46.674 C176.804,46.31 176.482,45.75 176.482,44.994 C176.482,44.294 176.713,43.748 177.175,43.356 C177.637,42.964 178.197,42.67 178.855,42.474 C179.513,42.278 180.199,42.159 180.913,42.117 C181.627,42.075 182.222,42.054 182.698,42.054 L182.698,42.054 L184.252,42.054 L184.252,43.398 C184.252,44.042 184.119,44.602 183.853,45.078 C183.587,45.554 183.23,45.946 182.782,46.254 C182.334,46.562 181.823,46.8 181.249,46.968 C180.675,47.136 180.08,47.22 179.464,47.22 Z M200.296,51 L200.296,40.836 C200.296,40.164 200.338,39.52 200.422,38.904 C200.506,38.288 200.681,37.735 200.947,37.245 C201.213,36.755 201.598,36.363 202.102,36.069 C202.606,35.775 203.264,35.628 204.076,35.628 C204.888,35.628 205.511,35.796 205.945,36.132 C206.379,36.468 206.701,36.902 206.911,37.434 C207.121,37.966 207.247,38.547 207.289,39.177 C207.331,39.807 207.352,40.416 207.352,41.004 L207.352,41.004 L207.352,51 L213.652,51 L213.652,39.744 C213.652,38.372 213.554,37.098 213.358,35.922 C213.162,34.746 212.791,33.724 212.245,32.856 C211.699,31.988 210.936,31.309 209.956,30.819 C208.976,30.329 207.688,30.084 206.092,30.084 C205.336,30.084 204.636,30.182 203.992,30.378 C203.348,30.574 202.788,30.826 202.312,31.134 C201.836,31.442 201.43,31.792 201.094,32.184 C200.758,32.576 200.52,32.968 200.38,33.36 L200.38,33.36 L200.296,33.36 L200.296,19.248 L193.996,19.248 L193.996,51 L200.296,51 Z M228.688,51.504 C230.256,51.504 231.733,51.252 233.119,50.748 C234.505,50.244 235.709,49.523 236.731,48.585 C237.753,47.647 238.558,46.52 239.146,45.204 C239.734,43.888 240.028,42.418 240.028,40.794 C240.028,39.17 239.734,37.7 239.146,36.384 C238.558,35.068 237.753,33.941 236.731,33.003 C235.709,32.065 234.505,31.344 233.119,30.84 C231.733,30.336 230.256,30.084 228.688,30.084 C227.12,30.084 225.643,30.336 224.257,30.84 C222.871,31.344 221.667,32.065 220.645,33.003 C219.623,33.941 218.818,35.068 218.23,36.384 C217.642,37.7 217.348,39.17 217.348,40.794 C217.348,42.418 217.642,43.888 218.23,45.204 C218.818,46.52 219.623,47.647 220.645,48.585 C221.667,49.523 222.871,50.244 224.257,50.748 C225.643,51.252 227.12,51.504 228.688,51.504 Z M228.688,45.96 C227.092,45.96 225.853,45.484 224.971,44.532 C224.089,43.58 223.648,42.334 223.648,40.794 C223.648,39.254 224.089,38.008 224.971,37.056 C225.853,36.104 227.092,35.628 228.688,35.628 C230.284,35.628 231.523,36.104 232.405,37.056 C233.287,38.008 233.728,39.254 233.728,40.794 C233.728,42.334 233.287,43.58 232.405,44.532 C231.523,45.484 230.284,45.96 228.688,45.96 Z M251.284,51.504 C252.04,51.504 252.74,51.406 253.384,51.21 C254.028,51.014 254.602,50.762 255.106,50.454 C255.61,50.146 256.037,49.796 256.387,49.404 C256.737,49.012 257.024,48.62 257.248,48.228 L257.248,48.228 L257.332,48.228 L257.332,51 L263.38,51 L263.38,30.588 L257.08,30.588 L257.08,40.752 C257.08,41.424 257.038,42.068 256.954,42.684 C256.87,43.3 256.695,43.853 256.429,44.343 C256.163,44.833 255.778,45.225 255.274,45.519 C254.77,45.813 254.112,45.96 253.3,45.96 C252.488,45.96 251.865,45.792 251.431,45.456 C250.997,45.12 250.675,44.686 250.465,44.154 C250.255,43.622 250.129,43.041 250.087,42.411 C250.045,41.781 250.024,41.172 250.024,40.584 L250.024,40.584 L250.024,30.588 L243.724,30.588 L243.724,41.844 C243.724,43.216 243.815,44.49 243.997,45.666 C244.179,46.842 244.543,47.864 245.089,48.732 C245.635,49.6 246.405,50.279 247.399,50.769 C248.393,51.259 249.688,51.504 251.284,51.504 Z M274.636,51.504 C275.728,51.504 276.834,51.399 277.954,51.189 C279.074,50.979 280.082,50.615 280.978,50.097 C281.874,49.579 282.609,48.893 283.183,48.039 C283.757,47.185 284.044,46.1 284.044,44.784 C284.044,43.496 283.785,42.467 283.267,41.697 C282.749,40.927 282.091,40.318 281.293,39.87 C280.495,39.422 279.641,39.093 278.731,38.883 C277.821,38.673 276.967,38.477 276.169,38.295 C275.371,38.113 274.713,37.903 274.195,37.665 C273.677,37.427 273.418,37.056 273.418,36.552 C273.418,35.936 273.67,35.502 274.174,35.25 C274.678,34.998 275.196,34.872 275.728,34.872 C277.24,34.872 278.458,35.446 279.382,36.594 L279.382,36.594 L283.246,32.772 C282.294,31.764 281.132,31.064 279.76,30.672 C278.388,30.28 277.03,30.084 275.686,30.084 C274.622,30.084 273.572,30.217 272.536,30.483 C271.5,30.749 270.583,31.162 269.785,31.722 C268.987,32.282 268.343,32.996 267.853,33.864 C267.363,34.732 267.118,35.768 267.118,36.972 C267.118,38.26 267.377,39.289 267.895,40.059 C268.413,40.829 269.071,41.424 269.869,41.844 C270.667,42.264 271.521,42.579 272.431,42.789 C273.341,42.999 274.195,43.195 274.993,43.377 C275.791,43.559 276.449,43.783 276.967,44.049 C277.485,44.315 277.744,44.714 277.744,45.246 C277.744,45.806 277.45,46.191 276.862,46.401 C276.274,46.611 275.616,46.716 274.888,46.716 C273.936,46.716 273.103,46.527 272.389,46.149 C271.675,45.771 271.024,45.218 270.436,44.49 L270.436,44.49 L266.614,48.732 C267.622,49.768 268.854,50.489 270.31,50.895 C271.766,51.301 273.208,51.504 274.636,51.504 Z M297.988,51.504 C299.64,51.504 301.236,51.154 302.776,50.454 C304.316,49.754 305.59,48.76 306.598,47.472 L306.598,47.472 L302.188,44.238 C301.656,44.966 301.033,45.561 300.319,46.023 C299.605,46.485 298.73,46.716 297.694,46.716 C296.462,46.716 295.426,46.359 294.586,45.645 C293.746,44.931 293.2,43.972 292.948,42.768 L292.948,42.768 L307.564,42.768 L307.564,40.794 C307.564,39.17 307.34,37.7 306.892,36.384 C306.444,35.068 305.807,33.941 304.981,33.003 C304.155,32.065 303.147,31.344 301.957,30.84 C300.767,30.336 299.444,30.084 297.988,30.084 C296.42,30.084 294.943,30.336 293.557,30.84 C292.171,31.344 290.967,32.065 289.945,33.003 C288.923,33.941 288.118,35.068 287.53,36.384 C286.942,37.7 286.648,39.17 286.648,40.794 C286.648,42.418 286.942,43.888 287.53,45.204 C288.118,46.52 288.923,47.647 289.945,48.585 C290.967,49.523 292.171,50.244 293.557,50.748 C294.943,51.252 296.42,51.504 297.988,51.504 Z M301.264,38.484 L292.948,38.484 C292.976,37.98 293.095,37.497 293.305,37.035 C293.515,36.573 293.809,36.167 294.187,35.817 C294.565,35.467 295.02,35.18 295.552,34.956 C296.084,34.732 296.7,34.62 297.4,34.62 C298.548,34.62 299.486,34.998 300.214,35.754 C300.942,36.51 301.292,37.42 301.264,38.484 L301.264,38.484 Z M131.794,102.756 C133.334,102.756 134.797,102.56 136.183,102.168 C137.569,101.776 138.787,101.174 139.837,100.362 C140.887,99.55 141.72,98.528 142.336,97.296 C142.952,96.064 143.26,94.622 143.26,92.97 C143.26,91.234 142.924,89.848 142.252,88.812 C141.58,87.776 140.733,86.95 139.711,86.334 C138.689,85.718 137.59,85.242 136.414,84.906 C135.238,84.57 134.139,84.234 133.117,83.898 C132.095,83.562 131.248,83.156 130.576,82.68 C129.904,82.204 129.568,81.518 129.568,80.622 C129.568,80.062 129.708,79.586 129.988,79.194 C130.268,78.802 130.632,78.487 131.08,78.249 C131.528,78.011 132.004,77.836 132.508,77.724 C133.012,77.612 133.502,77.556 133.978,77.556 C134.79,77.556 135.651,77.717 136.561,78.039 C137.471,78.361 138.192,78.858 138.724,79.53 L138.724,79.53 L143.218,74.616 C141.958,73.496 140.544,72.698 138.976,72.222 C137.408,71.746 135.784,71.508 134.104,71.508 C132.648,71.508 131.234,71.711 129.862,72.117 C128.49,72.523 127.279,73.132 126.229,73.944 C125.179,74.756 124.339,75.764 123.709,76.968 C123.079,78.172 122.764,79.572 122.764,81.168 C122.764,82.82 123.107,84.15 123.793,85.158 C124.479,86.166 125.34,86.978 126.376,87.594 C127.412,88.21 128.532,88.7 129.736,89.064 C130.94,89.428 132.06,89.792 133.096,90.156 C134.132,90.52 134.993,90.961 135.679,91.479 C136.365,91.997 136.708,92.704 136.708,93.6 C136.708,94.132 136.575,94.594 136.309,94.986 C136.043,95.378 135.693,95.7 135.259,95.952 C134.825,96.204 134.335,96.393 133.789,96.519 C133.243,96.645 132.704,96.708 132.172,96.708 C131.08,96.708 130.023,96.463 129.001,95.973 C127.979,95.483 127.132,94.79 126.46,93.894 L126.46,93.894 L121.798,99.018 C123.226,100.334 124.766,101.286 126.418,101.874 C128.07,102.462 129.862,102.756 131.794,102.756 Z M156.826,102.504 C157.554,102.504 158.296,102.462 159.052,102.378 C159.808,102.294 160.536,102.126 161.236,101.874 L161.236,101.874 L161.236,96.624 C160.956,96.876 160.543,97.037 159.997,97.107 C159.451,97.177 159.01,97.212 158.674,97.212 C158.002,97.212 157.463,97.121 157.057,96.939 C156.651,96.757 156.35,96.498 156.154,96.162 C155.958,95.826 155.832,95.427 155.776,94.965 C155.72,94.503 155.692,93.992 155.692,93.432 L155.692,93.432 L155.692,86.628 L161.236,86.628 L161.236,81.588 L155.692,81.588 L155.692,75.54 L149.392,75.54 L149.392,81.588 L145.36,81.588 L145.36,86.628 L149.392,86.628 L149.392,96.33 C149.392,97.45 149.581,98.402 149.959,99.186 C150.337,99.97 150.862,100.607 151.534,101.097 C152.206,101.587 152.99,101.944 153.886,102.168 C154.782,102.392 155.762,102.504 156.826,102.504 Z M171.988,102.504 C172.744,102.504 173.444,102.406 174.088,102.21 C174.732,102.014 175.306,101.762 175.81,101.454 C176.314,101.146 176.741,100.796 177.091,100.404 C177.441,100.012 177.728,99.62 177.952,99.228 L177.952,99.228 L178.036,99.228 L178.036,102 L184.084,102 L184.084,81.588 L177.784,81.588 L177.784,91.752 C177.784,92.424 177.742,93.068 177.658,93.684 C177.574,94.3 177.399,94.853 177.133,95.343 C176.867,95.833 176.482,96.225 175.978,96.519 C175.474,96.813 174.816,96.96 174.004,96.96 C173.192,96.96 172.569,96.792 172.135,96.456 C171.701,96.12 171.379,95.686 171.169,95.154 C170.959,94.622 170.833,94.041 170.791,93.411 C170.749,92.781 170.728,92.172 170.728,91.584 L170.728,91.584 L170.728,81.588 L164.428,81.588 L164.428,92.844 C164.428,94.216 164.519,95.49 164.701,96.666 C164.883,97.842 165.247,98.864 165.793,99.732 C166.339,100.6 167.109,101.279 168.103,101.769 C169.097,102.259 170.392,102.504 171.988,102.504 Z M197.818,102.504 C198.518,102.504 199.197,102.406 199.855,102.21 C200.513,102.014 201.115,101.762 201.661,101.454 C202.207,101.146 202.683,100.803 203.089,100.425 C203.495,100.047 203.824,99.676 204.076,99.312 L204.076,99.312 L204.16,99.312 L204.16,102 L209.956,102 L209.956,70.248 L203.656,70.248 L203.656,83.772 L203.572,83.772 C202.844,82.792 201.913,82.099 200.779,81.693 C199.645,81.287 198.42,81.084 197.104,81.084 C195.648,81.084 194.346,81.385 193.198,81.987 C192.05,82.589 191.077,83.394 190.279,84.402 C189.481,85.41 188.865,86.565 188.431,87.867 C187.997,89.169 187.78,90.534 187.78,91.962 C187.78,93.502 188.018,94.916 188.494,96.204 C188.97,97.492 189.649,98.605 190.531,99.543 C191.413,100.481 192.47,101.209 193.702,101.727 C194.934,102.245 196.306,102.504 197.818,102.504 Z M199.12,96.96 C197.524,96.96 196.285,96.484 195.403,95.532 C194.521,94.58 194.08,93.334 194.08,91.794 C194.08,90.254 194.521,89.008 195.403,88.056 C196.285,87.104 197.524,86.628 199.12,86.628 C200.716,86.628 201.955,87.104 202.837,88.056 C203.719,89.008 204.16,90.254 204.16,91.794 C204.16,93.334 203.719,94.58 202.837,95.532 C201.955,96.484 200.716,96.96 199.12,96.96 Z M218.23,78.816 C219.238,78.816 220.099,78.459 220.813,77.745 C221.527,77.031 221.884,76.17 221.884,75.162 C221.884,74.154 221.527,73.293 220.813,72.579 C220.099,71.865 219.238,71.508 218.23,71.508 C217.222,71.508 216.361,71.865 215.647,72.579 C214.933,73.293 214.576,74.154 214.576,75.162 C214.576,76.17 214.933,77.031 215.647,77.745 C216.361,78.459 217.222,78.816 218.23,78.816 Z M221.38,102 L221.38,81.588 L215.08,81.588 L215.08,102 L221.38,102 Z M236.5,102.504 C238.068,102.504 239.545,102.252 240.931,101.748 C242.317,101.244 243.521,100.523 244.543,99.585 C245.565,98.647 246.37,97.52 246.958,96.204 C247.546,94.888 247.84,93.418 247.84,91.794 C247.84,90.17 247.546,88.7 246.958,87.384 C246.37,86.068 245.565,84.941 244.543,84.003 C243.521,83.065 242.317,82.344 240.931,81.84 C239.545,81.336 238.068,81.084 236.5,81.084 C234.932,81.084 233.455,81.336 232.069,81.84 C230.683,82.344 229.479,83.065 228.457,84.003 C227.435,84.941 226.63,86.068 226.042,87.384 C225.454,88.7 225.16,90.17 225.16,91.794 C225.16,93.418 225.454,94.888 226.042,96.204 C226.63,97.52 227.435,98.647 228.457,99.585 C229.479,100.523 230.683,101.244 232.069,101.748 C233.455,102.252 234.932,102.504 236.5,102.504 Z M236.5,96.96 C234.904,96.96 233.665,96.484 232.783,95.532 C231.901,94.58 231.46,93.334 231.46,91.794 C231.46,90.254 231.901,89.008 232.783,88.056 C233.665,87.104 234.904,86.628 236.5,86.628 C238.096,86.628 239.335,87.104 240.217,88.056 C241.099,89.008 241.54,90.254 241.54,91.794 C241.54,93.334 241.099,94.58 240.217,95.532 C239.335,96.484 238.096,96.96 236.5,96.96 Z M258.34,102.504 C259.432,102.504 260.538,102.399 261.658,102.189 C262.778,101.979 263.786,101.615 264.682,101.097 C265.578,100.579 266.313,99.893 266.887,99.039 C267.461,98.185 267.748,97.1 267.748,95.784 C267.748,94.496 267.489,93.467 266.971,92.697 C266.453,91.927 265.795,91.318 264.997,90.87 C264.199,90.422 263.345,90.093 262.435,89.883 C261.525,89.673 260.671,89.477 259.873,89.295 C259.075,89.113 258.417,88.903 257.899,88.665 C257.381,88.427 257.122,88.056 257.122,87.552 C257.122,86.936 257.374,86.502 257.878,86.25 C258.382,85.998 258.9,85.872 259.432,85.872 C260.944,85.872 262.162,86.446 263.086,87.594 L263.086,87.594 L266.95,83.772 C265.998,82.764 264.836,82.064 263.464,81.672 C262.092,81.28 260.734,81.084 259.39,81.084 C258.326,81.084 257.276,81.217 256.24,81.483 C255.204,81.749 254.287,82.162 253.489,82.722 C252.691,83.282 252.047,83.996 251.557,84.864 C251.067,85.732 250.822,86.768 250.822,87.972 C250.822,89.26 251.081,90.289 251.599,91.059 C252.117,91.829 252.775,92.424 253.573,92.844 C254.371,93.264 255.225,93.579 256.135,93.789 C257.045,93.999 257.899,94.195 258.697,94.377 C259.495,94.559 260.153,94.783 260.671,95.049 C261.189,95.315 261.448,95.714 261.448,96.246 C261.448,96.806 261.154,97.191 260.566,97.401 C259.978,97.611 259.32,97.716 258.592,97.716 C257.64,97.716 256.807,97.527 256.093,97.149 C255.379,96.771 254.728,96.218 254.14,95.49 L254.14,95.49 L250.318,99.732 C251.326,100.768 252.558,101.489 254.014,101.895 C255.47,102.301 256.912,102.504 258.34,102.504 Z"/></g></g></svg>
